<svg xmlns="http://www.w3.org/2000/svg" viewBox="0 0 50 50"><path d="M28.9,27.9a1,1,0,0,0,1-.9,1,1,0,0,0-2,0A1,1,0,0,0,28.9,27.9Z" fill="#f15a26"/><path d="M7.4,27.9a.9.9,0,0,0,1-.9.9.9,0,0,0-1-1,1,1,0,0,0-1,1A1,1,0,0,0,7.4,27.9Z" fill="#f15a26"/><path d="M1,12.3a1,1,0,0,0,1-1V2h9.3a1,1,0,0,0,1-1,.9.9,0,0,0-1-1H1A.9.9,0,0,0,0,1V11.3A.9.9,0,0,0,1,12.3Z" fill="#f15a26"/><path d="M12.3,49a1,1,0,0,0-1-1H2V38.7a1,1,0,0,0-1-1,.9.9,0,0,0-1,1V49a.9.9,0,0,0,1,1H11.3A.9.9,0,0,0,12.3,49Z" fill="#f15a26"/><path d="M49,37.7a1,1,0,0,0-1,1V48H38.7a1,1,0,0,0-1,1,.9.9,0,0,0,1,1H49a.9.9,0,0,0,1-1V38.7A.9.9,0,0,0,49,37.7Z" fill="#f15a26"/><path d="M49,0H38.7a.9.9,0,0,0-1,1,1,1,0,0,0,1,1H48v9.3a1,1,0,0,0,1,1,.9.9,0,0,0,1-1V1A.9.9,0,0,0,49,0Z" fill="#f15a26"/><path d="M8.4,33.8h7.8v7.8H8.4Zm-2,8.8a1.1,1.1,0,0,0,1,1h9.8a1.1,1.1,0,0,0,1-1V32.8a1.1,1.1,0,0,0-1-1H7.4a1.1,1.1,0,0,0-1,1Z" fill="#f15a26"/><path d="M16.2,16.2H8.4V8.4h7.8Zm1-9.8H7.4a1.1,1.1,0,0,0-1,1v9.8a1.1,1.1,0,0,0,1,1h9.8a1.1,1.1,0,0,0,1-1V7.4A1.1,1.1,0,0,0,17.2,6.4Z" fill="#f15a26"/><path d="M41.6,16.2H33.8V8.4h7.8Zm2-8.8a1.1,1.1,0,0,0-1-1H32.8a1.1,1.1,0,0,0-1,1v9.8a1.1,1.1,0,0,0,1,1h9.8a1.1,1.1,0,0,0,1-1Z" fill="#f15a26"/><path d="M41.6,41.6H33.8V33.8h7.8Zm2,1V32.8a1.1,1.1,0,0,0-1-1H32.8a1.1,1.1,0,0,0-1,1v9.8a1.1,1.1,0,0,0,1,1h9.8A1.1,1.1,0,0,0,43.6,42.6Z" fill="#f15a26"/><rect x="10.4" y="35.7" width="3.9" height="3.91" rx="1" fill="#f15a26"/><rect x="10.4" y="10.4" width="3.9" height="3.91" rx="1" fill="#f15a26"/><rect x="35.7" y="10.4" width="3.9" height="3.91" rx="1" fill="#f15a26"/><rect x="35.7" y="35.7" width="3.9" height="3.91" rx="1" fill="#f15a26"/><path d="M10.4,27a.9.9,0,0,0,.9.9H24v4.9a1,1,0,0,0,2,0V27a1,1,0,0,0-1-1H11.3A.9.9,0,0,0,10.4,27Z" fill="#f15a26"/><path d="M17.2,24a1,1,0,0,0,1-1,1,1,0,0,0-1-.9H7.4a1,1,0,0,0-1,.9,1,1,0,0,0,1,1Z" fill="#f15a26"/><path d="M21.1,24H25a1,1,0,0,0,1-1,1,1,0,0,0-1-.9H21.1a1,1,0,0,0-1,.9A1,1,0,0,0,21.1,24Z" fill="#f15a26"/><path d="M21.1,6.4a1.1,1.1,0,0,0-1,1v9.8a1.1,1.1,0,0,0,1,1h6.8V23a1,1,0,0,0,1,1h3.9a.9.9,0,0,0,1-1,.9.9,0,0,0-1-.9H29.9V17.2a1,1,0,0,0-1-1H22.1V7.4A1.1,1.1,0,0,0,21.1,6.4Z" fill="#f15a26"/><path d="M42.6,22.1H36.7a1,1,0,0,0-1,.9,1,1,0,0,0,1,1h5.9a1,1,0,0,0,1-1A1,1,0,0,0,42.6,22.1Z" fill="#f15a26"/><path d="M42.6,26H32.8a1,1,0,0,0-1,1,1,1,0,0,0,1,.9h9.8a1,1,0,0,0,1-.9A1,1,0,0,0,42.6,26Z" fill="#f15a26"/><path d="M25,35.7H21.1a1.1,1.1,0,0,0-1,1v5.9a1,1,0,0,0,2,0V37.7H25a1,1,0,0,0,1-1A1.1,1.1,0,0,0,25,35.7Z" fill="#f15a26"/><path d="M27.9,41.6H25a1,1,0,0,0-1,1,1.1,1.1,0,0,0,1,1h3.9a1.1,1.1,0,0,0,1-1V30.9a1,1,0,0,0-2,0Z" fill="#f15a26"/><path d="M28.9,14.3a1.1,1.1,0,0,0,1-1V7.4a1,1,0,1,0-2,0v4.9H25a1,1,0,0,0-1,1,1.1,1.1,0,0,0,1,1Z" fill="#f15a26"/></svg>