<svg xmlns="http://www.w3.org/2000/svg" viewBox="0 0 72 72"><circle cx="36" cy="36" r="36" fill="#fff" opacity="0.65"/><path d="M50.2,39.4a12.6,12.6,0,0,1,5.1,1.1V21.3a4.3,4.3,0,0,0-1.3-3l-6.1-6.2a4.7,4.7,0,0,0-3.1-1.2H20.9A1.8,1.8,0,0,0,19,12.8V17H40.4a2.8,2.8,0,0,1,2.8,2.8V32.3a2.9,2.9,0,0,1-2.8,2.9H19v21a1.8,1.8,0,0,0,1.9,1.9H40.5a11.5,11.5,0,0,1-2.2-6.8A11.9,11.9,0,0,1,50.2,39.4Z" fill="#fff"/><path d="M40.4,19H12.8a.8.8,0,0,0-.9.8V32.3a.9.9,0,0,0,.9.9H40.4a.9.9,0,0,0,.8-.9V19.8A.8.8,0,0,0,40.4,19Z" fill="#fff"/><path d="M55.3,51.4a.3.3,0,0,0-.1.2l-4,6a1.4,1.4,0,0,1-1,.5,1.2,1.2,0,0,1-1-.5l-4-6a1,1,0,0,1-.1-1.2,1.1,1.1,0,0,1,1.1-.6h1.3V45.6a1.2,1.2,0,0,1,1.2-1.2h2.8a1.2,1.2,0,0,1,1.2,1.2v4.2h1.5a1.1,1.1,0,0,1,1,.6h.1A1.4,1.4,0,0,1,55.3,51.4Zm2-7a9.7,9.7,0,0,0-7.1-3,9.8,9.8,0,0,0-7.1,16.7,8,8,0,0,0,2.8,2,8.8,8.8,0,0,0,4.3,1,9.1,9.1,0,0,0,4.3-1,11,11,0,0,0,2.8-2,9.8,9.8,0,0,0,0-13.7Z" fill="#fff"/><path d="M20.9,58.1A1.8,1.8,0,0,1,19,56.2v-21H40.4a2.9,2.9,0,0,0,2.8-2.9V19.8A2.8,2.8,0,0,0,40.4,17H19V12.8a1.8,1.8,0,0,1,1.9-1.9H44.8a4.7,4.7,0,0,1,3.1,1.2L54,18.3a4.3,4.3,0,0,1,1.3,3V40.5a12.6,12.6,0,0,0-5.1-1.1A11.9,11.9,0,0,0,38.3,51.3a11.5,11.5,0,0,0,2.2,6.8Zm-9-25.8V19.8a.8.8,0,0,1,.9-.8H40.4a.8.8,0,0,1,.8.8V32.3a.9.9,0,0,1-.8.9H12.8A.9.9,0,0,1,11.9,32.3ZM50.2,61.1a8.8,8.8,0,0,1-4.3-1,8,8,0,0,1-2.8-2,9.8,9.8,0,0,1,7.1-16.7,9.8,9.8,0,0,1,7.1,16.7,11,11,0,0,1-2.8,2A9.1,9.1,0,0,1,50.2,61.1Zm7.1-19.4V21.3a6.4,6.4,0,0,0-1.9-4.5l-6.1-6.1a6.3,6.3,0,0,0-4.5-1.8H20.9A3.8,3.8,0,0,0,17,12.8V17H12.8a2.8,2.8,0,0,0-2.9,2.8V32.3a2.9,2.9,0,0,0,2.9,2.9H17v21a3.8,3.8,0,0,0,3.9,3.9H42.3a11.6,11.6,0,0,0,7.9,3A11.9,11.9,0,0,0,62.1,51.3,12.1,12.1,0,0,0,57.3,41.7Z" fill="#f36d21"/><path d="M50.2,56.4l-3.5-5.1H49V45.9h2.2v5.4h2.4Zm5-6a1.1,1.1,0,0,0-1-.6H52.7V45.6a1.2,1.2,0,0,0-1.2-1.2H48.7a1.2,1.2,0,0,0-1.2,1.2v4.2H46.2a1.1,1.1,0,0,0-1.1.6,1,1,0,0,0,.1,1.2l4,6a1.2,1.2,0,0,0,1,.5,1.4,1.4,0,0,0,1-.5l4-6a.3.3,0,0,1,.1-.2,1.4,1.4,0,0,0,0-.9Z" fill="#f36d21"/><path d="M35.7,27H33v2.9H31.2V22.7H36v1.4H33v1.6h2.7Zm-9.2-2.9v4.4h.6c.5,0,.9-.1,1.1-.5a2.2,2.2,0,0,0,.4-1.5v-.4a2.2,2.2,0,0,0-.4-1.5c-.2-.4-.6-.5-1.1-.5Zm-1.7,5.8V22.7h2.3a3.4,3.4,0,0,1,1.7.5,2.5,2.5,0,0,1,1.1,1.2,3.4,3.4,0,0,1,.5,1.7v.4a4.7,4.7,0,0,1-.4,1.7,3.4,3.4,0,0,1-1.2,1.2,3.4,3.4,0,0,1-1.7.5ZM20,26.1h1.1l.8-.2a1.4,1.4,0,0,0,.2-.7,1.5,1.5,0,0,0-.2-.8,1.1,1.1,0,0,0-.8-.3H20Zm0,1.3v2.5H18.3V22.7h2.8a3.7,3.7,0,0,1,1.5.3,2,2,0,0,1,.9.9,2,2,0,0,1,.4,1.3,1.9,1.9,0,0,1-.8,1.6,3.2,3.2,0,0,1-2,.6Z" fill="#f15a26"/></svg>