<svg xmlns="http://www.w3.org/2000/svg" viewBox="0 0 41.6 50"><path d="M20.8,48.4A19.2,19.2,0,1,1,40,29.2,19.2,19.2,0,0,1,20.8,48.4Zm-1-42h2v2h-2ZM16.3,3.9V2.4a.4.4,0,0,1,.4-.4h8.2a.4.4,0,0,1,.4.4V3.9a.5.5,0,0,1-.4.5H16.7A.5.5,0,0,1,16.3,3.9Zm21.2,8.9,1.6,1.6-2,1.9a10.7,10.7,0,0,0-1.4-1.6Zm3,3a2.1,2.1,0,0,0,0-2.9L39,11.3a2.1,2.1,0,0,0-2.9,0l-1.9,2A21.1,21.1,0,0,0,23.9,8.6V6.4H25a2.3,2.3,0,0,0,2.1-2.1V2.1A2.1,2.1,0,0,0,25,0H16.7a2.1,2.1,0,0,0-2.1,2.1V4.3a2.2,2.2,0,0,0,2.1,2.1h1V8.6A20.8,20.8,0,1,0,41.6,29.2,20.4,20.4,0,0,0,38.3,18Z" fill="#f15a26"/><path d="M21.7,43.8V41.9a1,1,0,0,0-2,0v1.9A14.7,14.7,0,0,1,6.2,30.3H8a1,1,0,0,0,0-2H6.2A14.7,14.7,0,0,1,19.7,14.6v1.9a1,1,0,0,0,2,0V14.6A14.6,14.6,0,0,1,35.4,28.3h-2a1,1,0,0,0,0,2h2A14.5,14.5,0,0,1,21.7,43.8Zm-.9-31.1h-.2A16.5,16.5,0,0,0,4.3,28.8a1.3,1.3,0,0,0,0,1A16.6,16.6,0,0,0,20.6,45.7h.2a16.5,16.5,0,0,0,0-33Z" fill="#f15a26"/><path d="M26.6,28.4H21.8V21.6a1,1,0,0,0-2,0v7.8a1,1,0,0,0,1,1h5.8a1,1,0,0,0,1.1-1A1.1,1.1,0,0,0,26.6,28.4Z" fill="#f15a26"/></svg>