<svg xmlns="http://www.w3.org/2000/svg" viewBox="0 0 62.1 50"><path d="M53,45H50.9a.9.9,0,0,0,0,1.8H53A.9.9,0,1,0,53,45Z" fill="#f15a26"/><path d="M31,10.8a14.2,14.2,0,0,0-10.3,4.3.9.9,0,0,0,0,1.3,1,1,0,0,0,1.3,0,12.8,12.8,0,0,1,18,0,1.1,1.1,0,0,0,1.3,0,1.1,1.1,0,0,0,0-1.3A14.4,14.4,0,0,0,31,10.8Z" fill="#f15a26"/><path d="M38.2,19.5a1.1,1.1,0,0,0,0-1.3,10.1,10.1,0,0,0-14.4,0,.9.9,0,0,0,0,1.3,1,1,0,0,0,1.3,0,8.3,8.3,0,0,1,11.8,0A1.1,1.1,0,0,0,38.2,19.5Z" fill="#f15a26"/><path d="M26.9,21.3a.9.9,0,0,0,0,1.3,1,1,0,0,0,1.3,0,3.9,3.9,0,0,1,5.6,0,.9.9,0,1,0,1.3-1.3A5.7,5.7,0,0,0,26.9,21.3Z" fill="#f15a26"/><path d="M38.4,32.3a.9.9,0,0,0,0-1.8H10.1V6.1H52v8.7a.9.9,0,1,0,1.8,0V6a1.8,1.8,0,0,0-1.7-1.7H10A1.8,1.8,0,0,0,8.3,6V30.6A1.8,1.8,0,0,0,10,32.3Z" fill="#f15a26"/><path d="M60.3,47.2a1.1,1.1,0,0,1-1,1H44.6a1,1,0,0,1-1-1V21a1,1,0,0,1,1-1H59.3a1.1,1.1,0,0,1,1,1ZM6.7,42.1a4.9,4.9,0,0,1-4.9-4.9.6.6,0,0,1,.6-.6H20.5v.9a2.7,2.7,0,0,0,2.7,2.7H36.7a2.8,2.8,0,0,0,2.8-2.7v-.9h2.3v5.5Zm15.6-5.5H37.6v.9a.9.9,0,0,1-.9.9H23.2a.9.9,0,0,1-.9-.9ZM5.8,4.1A2.3,2.3,0,0,1,8.1,1.8H54a2.3,2.3,0,0,1,2.3,2.3V18.2H44.6A2.7,2.7,0,0,0,41.8,21V34.8H5.8ZM59.3,18.2H58.1V4.1A4.1,4.1,0,0,0,54,0H8.1A4.1,4.1,0,0,0,4,4.1V34.8H2.4A2.4,2.4,0,0,0,0,37.2a6.7,6.7,0,0,0,6.7,6.7H41.8v3.3A2.8,2.8,0,0,0,44.6,50H59.3a2.9,2.9,0,0,0,2.8-2.8V21A2.8,2.8,0,0,0,59.3,18.2Z" fill="#f15a26"/><path d="M57,41.8H46.9V23.3H57Zm.1-20.3H46.7a1.6,1.6,0,0,0-1.6,1.6V42a1.6,1.6,0,0,0,1.6,1.6H57.1A1.7,1.7,0,0,0,58.8,42V23.1A1.7,1.7,0,0,0,57.1,21.5Z" fill="#f15a26"/></svg>