<svg xmlns="http://www.w3.org/2000/svg" viewBox="0 0 50 50"><path d="M48.3,15H1.7V9.2A2.5,2.5,0,0,1,4.2,6.7H8.3V8.3a3.4,3.4,0,1,0,6.7,0V6.7h6.7V8.3a3.3,3.3,0,1,0,6.6,0V6.7H35V8.3a3.4,3.4,0,1,0,6.7,0V6.7h4.1a2.5,2.5,0,0,1,2.5,2.5ZM10,3.3a1.6,1.6,0,0,1,1.7-1.6,1.6,1.6,0,0,1,1.6,1.6v5A1.6,1.6,0,0,1,11.7,10,1.6,1.6,0,0,1,10,8.3Zm13.3,0a1.7,1.7,0,0,1,3.4,0v5a1.7,1.7,0,0,1-3.4,0Zm13.4,0a1.6,1.6,0,0,1,1.6-1.6A1.6,1.6,0,0,1,40,3.3v5A1.6,1.6,0,0,1,38.3,10a1.6,1.6,0,0,1-1.6-1.7ZM45.8,5H41.7V3.3a3.4,3.4,0,0,0-6.7,0V5H28.3V3.3a3.3,3.3,0,1,0-6.6,0V5H15V3.3a3.4,3.4,0,0,0-6.7,0V5H4.2A4.2,4.2,0,0,0,0,9.2V42.5a4.2,4.2,0,0,0,4.2,4.2H27.5a.8.8,0,0,0,.8-.9.8.8,0,0,0-.8-.8H4.2a2.5,2.5,0,0,1-2.5-2.5V16.7H48.3V30.8a.9.9,0,0,0,.9.9.9.9,0,0,0,.8-.9V9.2A4.2,4.2,0,0,0,45.8,5Z" fill="#f15a26"/><path d="M18.3,25V22.5h3.4V25Zm5-2.5a1.7,1.7,0,0,0-1.6-1.7H18.3a1.7,1.7,0,0,0-1.6,1.7V25a1.7,1.7,0,0,0,1.6,1.7h3.4A1.7,1.7,0,0,0,23.3,25Z" fill="#f15a26"/><path d="M8.3,25V22.5h3.4V25Zm5-2.5a1.7,1.7,0,0,0-1.6-1.7H8.3a1.7,1.7,0,0,0-1.6,1.7V25a1.7,1.7,0,0,0,1.6,1.7h3.4A1.7,1.7,0,0,0,13.3,25Z" fill="#f15a26"/><path d="M38.3,22.5h3.4V25H38.3Zm3.4,4.2A1.7,1.7,0,0,0,43.3,25V22.5a1.7,1.7,0,0,0-1.6-1.7H38.3a1.7,1.7,0,0,0-1.6,1.7V25a1.7,1.7,0,0,0,1.6,1.7Z" fill="#f15a26"/><path d="M18.3,32.5V30h3.4v2.5Zm5-2.5a1.7,1.7,0,0,0-1.6-1.7H18.3A1.7,1.7,0,0,0,16.7,30v2.5a1.7,1.7,0,0,0,1.6,1.7h3.4a1.7,1.7,0,0,0,1.6-1.7Z" fill="#f15a26"/><path d="M8.3,32.5V30h3.4v2.5Zm5-2.5a1.7,1.7,0,0,0-1.6-1.7H8.3A1.7,1.7,0,0,0,6.7,30v2.5a1.7,1.7,0,0,0,1.6,1.7h3.4a1.7,1.7,0,0,0,1.6-1.7Z" fill="#f15a26"/><path d="M18.3,40V37.5h3.4V40Zm3.4-4.2H18.3a1.7,1.7,0,0,0-1.6,1.7V40a1.7,1.7,0,0,0,1.6,1.7h3.4A1.7,1.7,0,0,0,23.3,40V37.5A1.7,1.7,0,0,0,21.7,35.8Z" fill="#f15a26"/><path d="M28.3,22.5h3.4V25H28.3Zm0,4.2h3.4A1.7,1.7,0,0,0,33.3,25V22.5a1.7,1.7,0,0,0-1.6-1.7H28.3a1.7,1.7,0,0,0-1.6,1.7V25A1.7,1.7,0,0,0,28.3,26.7Z" fill="#f15a26"/><path d="M26.7,32.5a1.7,1.7,0,0,0,1.6,1.7.9.9,0,0,0,.9-.9.9.9,0,0,0-.9-.8V30h3.4a.9.9,0,0,0,.8-.8.9.9,0,0,0-.8-.9H28.3A1.7,1.7,0,0,0,26.7,30Z" fill="#f15a26"/><path d="M8.3,40V37.5h3.4V40Zm3.4-4.2H8.3a1.7,1.7,0,0,0-1.6,1.7V40a1.7,1.7,0,0,0,1.6,1.7h3.4A1.7,1.7,0,0,0,13.3,40V37.5A1.7,1.7,0,0,0,11.7,35.8Z" fill="#f15a26"/><path d="M39.2,48.3a9.2,9.2,0,1,1,9.1-9.1A9.2,9.2,0,0,1,39.2,48.3Zm0-20a10.9,10.9,0,1,0,0,21.7A10.8,10.8,0,0,0,50,39.2,10.9,10.9,0,0,0,39.2,28.3Z" fill="#f15a26"/><path d="M44,35.7l-6.5,6.5-2.9-3a.8.8,0,1,0-1.2,1.2l3.5,3.5a.9.9,0,0,0,1.2,0l7.1-7a.8.8,0,0,0-.1-1.2A.8.8,0,0,0,44,35.7Z" fill="#f15a26"/></svg>