<svg xmlns="http://www.w3.org/2000/svg" viewBox="0 0 100 100"><rect width="100" height="100" fill="#f36d21"/><path d="M57.5,24.6A7.5,7.5,0,1,1,50,17.1a7.6,7.6,0,0,1,7.5,7.5" fill="#fff"/><path d="M26.3,36.8a1,1,0,0,0-.8-.7l-1.3-.2c-1.1,0-1.6.2-1.6.6s9,.5,9,4.1-3,3.4-7.3,3.4-6.8-1.5-6.9-3.3h4.9c.1.4.4.6.8.8a3.7,3.7,0,0,0,1.5.3c1.2,0,2.1-.3,2.1-.8s-9-.4-9-4.2c0-2.1,2.9-3.1,6.8-3.1s6.3,1.4,6.6,3.1Z" fill="#fff"/><polygon points="33.9 43.8 33.9 33.9 46.7 33.9 46.7 36.2 39.1 36.2 39.1 37.6 45.5 37.6 45.5 39.9 39.1 39.9 39.1 41.5 47 41.5 47 43.8 33.9 43.8" fill="#fff"/><polygon points="59.8 39.3 59.6 37 59.6 33.9 64.5 33.9 64.5 43.8 59.7 43.8 54.2 38.4 54.3 40.6 54.3 43.8 49.4 43.8 49.4 33.9 54.2 33.9 59.8 39.3" fill="#fff"/><path d="M74.4,36.9l-1.6,3.5h3.3Zm-8.1,6.9,5.6-9.9h5.2l5.6,9.9H77.6l-.7-1.3h-5l-.6,1.3Z" fill="#fff"/><polygon points="83.8 45.9 52.5 45.9 70.7 78.3 74.7 74.8 60.2 50.4 83.9 50.4 83.8 45.9" fill="#fff"/><polygon points="16.2 45.9 47.5 45.9 29.3 78.3 25.3 74.8 39.8 50.4 16.1 50.4 16.2 45.9" fill="#fff"/><polygon points="32.8 80.8 49.9 51.4 67.4 80.6 62.8 82.7 50.2 60.2 36.9 82.9 32.8 80.8" fill="#fff"/></svg>